<svg width="112" height="28" viewBox="0 0 112 28" fill="none" xmlns="http://www.w3.org/2000/svg">
<path d="M1.83 25.91V4.49H13.02L16.83 8.3V22.1L13.02 25.91H1.83ZM3.84 23.96H12.12L14.82 21.29V9.11L12.12 6.44H3.84V23.96ZM22.0741 22.1V8.3L25.8541 4.49H33.2341L37.0741 8.3V22.1L33.2341 25.91H25.8541L22.0741 22.1ZM24.0841 21.29L26.7541 23.96H32.3641L35.0641 21.29V9.11L32.3641 6.44H26.7541L24.0841 9.11V21.29ZM42.3183 25.67V4.49H53.5083L57.3183 8.3V12.38L53.5083 16.16H48.9783L57.5883 24.77L56.1483 26.18L46.1283 16.16H44.3283V25.67H42.3183ZM44.3283 14.21H52.6083L55.2783 11.57V9.11L52.6083 6.44H44.3283V14.21ZM62.5624 25.67V18.2L69.2524 4.49H70.8424L77.5624 18.2V25.67H75.5524V19.4H64.5724V25.67H62.5624ZM65.1724 17.48H74.9524L70.0324 7.49L65.1724 17.48Z" fill="black"/>
<path d="M101.047 26C99.9115 26 98.9055 25.64 98.0289 24.92C96.6895 23.8198 94.8223 22.6773 93.188 22.1C92.1122 21.72 91.2855 21.06 90.7077 20.12C90.1101 19.16 89.891 18.095 90.0503 16.925C90.0558 16.8847 90.0617 16.8446 90.0681 16.8048C90.3422 15.0824 90.3559 12.9045 90.0952 11.18C89.9258 10.06 90.1101 9.02 90.648 8.06C91.1859 7.1 91.9977 6.405 93.0834 5.975C94.709 5.33118 96.6181 4.18979 97.9692 3.08C98.8457 2.36 99.8518 2 100.987 2C102.123 2 103.129 2.36 104.005 3.08C105.361 4.19361 107.252 5.30327 108.891 5.93C109.937 6.33 110.749 7.04 111.327 8.06C111.864 9.06 112.059 10.105 111.909 11.195C111.673 12.9202 111.641 15.0847 111.925 16.8028C111.93 16.8334 111.935 16.8641 111.939 16.895C112.109 18.045 111.924 19.12 111.386 20.12C110.809 21.14 109.997 21.82 108.951 22.16C107.282 22.7024 105.421 23.8064 104.065 24.92C103.189 25.64 102.183 26 101.047 26ZM101.047 23.6C101.983 23.6 102.686 23.195 103.154 22.385C103.622 21.575 103.617 20.78 103.139 20L102.635 19.1692C102.438 18.8442 102.05 18.6984 101.675 18.755C101.475 18.785 101.266 18.8 101.047 18.8C100.848 18.8 100.644 18.785 100.434 18.755C100.05 18.6998 99.653 18.8493 99.4514 19.1817L98.9553 20C98.4772 20.78 98.4722 21.575 98.9403 22.385C99.4085 23.195 100.111 23.6 101.047 23.6ZM92.68 18.8C93.1581 19.62 93.8603 20.03 94.7867 20.03C95.713 20.03 96.4053 19.62 96.8635 18.8L97.3071 18.012C97.5043 17.6619 97.4383 17.2277 97.1922 16.91C97.0528 16.73 96.9332 16.54 96.8336 16.34C96.734 16.16 96.6444 15.975 96.5647 15.785C96.422 15.4449 96.1028 15.2 95.7339 15.2H94.7717C93.8354 15.2 93.1382 15.595 92.68 16.385C92.2218 17.175 92.2218 17.98 92.68 18.8ZM105.111 18.8C105.569 19.62 106.262 20.03 107.188 20.03C108.114 20.03 108.816 19.62 109.295 18.8C109.753 17.98 109.753 17.175 109.295 16.385C108.836 15.595 108.139 15.2 107.203 15.2H106.237C105.878 15.2 105.578 15.4601 105.425 15.785C105.335 15.975 105.241 16.16 105.141 16.34C105.041 16.54 104.922 16.73 104.782 16.91C104.536 17.2277 104.47 17.6619 104.667 18.012L105.111 18.8ZM95.6721 12.8C96.0755 12.8 96.4213 12.526 96.5796 12.155C96.6693 11.945 96.7639 11.75 96.8635 11.57C96.9631 11.39 97.0777 11.22 97.2072 11.06C97.4479 10.7626 97.5108 10.3497 97.3231 10.0163L96.8635 9.2C96.4053 8.38 95.713 7.97 94.7867 7.97C93.8603 7.97 93.1581 8.38 92.68 9.2C92.2218 10.02 92.2218 10.825 92.68 11.615C93.1382 12.405 93.8354 12.8 94.7717 12.8H95.6721ZM107.203 12.8C108.139 12.8 108.836 12.405 109.295 11.615C109.753 10.825 109.753 10.02 109.295 9.2C108.816 8.38 108.114 7.97 107.188 7.97C106.262 7.97 105.569 8.38 105.111 9.2L104.651 10.0163C104.464 10.3497 104.527 10.7626 104.767 11.06C104.897 11.22 105.011 11.39 105.111 11.57C105.211 11.75 105.305 11.945 105.395 12.155C105.553 12.526 105.899 12.8 106.302 12.8H107.203ZM99.3708 8.81289C99.5663 9.1474 99.9613 9.30001 100.345 9.245C100.554 9.215 100.768 9.2 100.987 9.2C101.206 9.2 101.421 9.215 101.63 9.245C102.013 9.30001 102.408 9.1474 102.604 8.81289L103.079 8C103.537 7.22 103.537 6.425 103.079 5.615C102.621 4.805 101.924 4.4 100.987 4.4C100.051 4.4 99.3537 4.8 98.8955 5.6C98.4373 6.4 98.4373 7.2 98.8955 8L99.3708 8.81289ZM100.987 16.4C101.645 16.4 102.207 16.165 102.676 15.695C103.144 15.225 103.378 14.66 103.378 14C103.378 13.34 103.144 12.775 102.676 12.305C102.207 11.835 101.645 11.6 100.987 11.6C100.33 11.6 99.7671 11.835 99.2989 12.305C98.8308 12.775 98.5967 13.34 98.5967 14C98.5967 14.66 98.8308 15.225 99.2989 15.695C99.7671 16.165 100.33 16.4 100.987 16.4Z" fill="#1C1B1F"/>
</svg>
